<?xml version="1.0" standalone="no"?>
<!DOCTYPE svg PUBLIC "-//W3C//DTD SVG 20010904//EN"
 "http://www.w3.org/TR/2001/REC-SVG-20010904/DTD/svg10.dtd">
<svg version="1.0" xmlns="http://www.w3.org/2000/svg"
 width="1100.000000pt" height="1100.000000pt" viewBox="0 0 1100.000000 1100.000000"
 preserveAspectRatio="xMidYMid meet">

<g transform="translate(0.000000,1100.000000) scale(0.100000,-0.100000)"
fill="#000000" stroke="none">
<path d="M2312 9005 c-66 -20 -119 -62 -170 -134 -25 -37 -59 -81 -74 -99 -15
-18 -28 -44 -28 -58 0 -22 821 -2148 856 -2215 8 -17 29 -39 47 -49 31 -19 57
-20 894 -20 l863 0 4 -22 c22 -121 45 -194 84 -272 37 -75 62 -107 136 -181
100 -99 183 -153 289 -187 62 -20 67 -24 67 -50 l0 -29 -30 16 c-26 14 -71 15
-300 13 l-270 -3 -32 -33 -33 -32 -3 -153 c-3 -169 2 -187 57 -224 27 -19 48
-23 105 -23 l71 0 45 -101 c24 -55 47 -102 51 -104 3 -3 35 42 70 100 l64 104
68 1 c79 0 127 19 154 58 14 22 18 54 21 160 4 117 6 131 19 120 9 -7 54 -15
100 -18 l85 -5 43 -100 c24 -55 47 -101 52 -102 4 -2 37 44 73 102 l65 105 75
0 c76 0 107 11 137 50 10 12 12 -13 13 -123 0 -198 14 -218 155 -227 l80 -5
45 -102 c25 -57 49 -102 54 -100 5 2 38 49 74 105 l64 102 80 0 c78 0 81 1
114 34 l34 34 1 139 c1 76 0 146 -1 156 -1 18 0 18 25 1 17 -11 54 -19 105
-22 l78 -4 43 -99 c23 -55 47 -99 53 -99 6 0 38 45 70 99 l60 99 78 4 c60 4
86 10 108 27 l30 22 0 -144 c0 -133 2 -147 23 -178 27 -41 71 -58 153 -58 l61
-1 43 -100 c24 -55 48 -100 54 -100 6 0 38 45 71 100 l60 100 65 0 c74 0 122
20 154 63 19 26 21 43 21 175 0 162 -5 180 -58 212 -30 18 -52 20 -298 20
-251 0 -268 -1 -292 -20 -14 -11 -28 -20 -31 -20 -3 0 -6 67 -6 150 l0 150
-29 32 -29 33 -274 3 c-237 3 -277 1 -304 -13 -56 -30 -64 -57 -64 -220 l0
-146 -22 15 c-19 14 -64 16 -291 16 -282 0 -311 -4 -336 -47 -9 -15 -10 -12
-11 15 0 18 6 34 13 36 205 57 282 99 403 220 128 129 179 235 220 454 l4 22
940 0 939 0 -29 -62 c-132 -293 -111 -617 57 -887 64 -102 198 -233 301 -295
172 -103 385 -149 576 -127 208 25 395 113 541 256 121 119 182 214 235 372
l29 88 60 21 c33 11 76 33 95 48 l36 27 0 82 c0 45 -6 93 -13 106 -20 39 -64
65 -119 71 l-50 5 -19 73 c-19 76 -83 221 -119 272 -29 40 -47 28 -20 -13 51
-77 130 -276 130 -330 0 -3 -28 -7 -62 -9 l-63 -3 -12 57 c-16 77 -63 182 -76
169 -7 -7 -2 -36 14 -88 33 -109 33 -259 0 -358 -27 -82 -59 -141 -113 -209
-21 -27 -38 -53 -38 -59 0 -20 62 48 102 113 51 82 41 49 -15 -49 -58 -102
-159 -216 -242 -273 -94 -64 -195 -98 -315 -105 -329 -20 -610 184 -699 505
-22 79 -15 99 9 25 8 -25 22 -49 29 -51 11 -4 12 0 6 14 -50 115 -70 241 -55
344 21 149 74 254 186 366 142 144 323 212 529 201 55 -3 124 -13 153 -22 88
-27 107 -13 22 15 -65 22 -92 25 -210 25 -113 0 -147 -4 -210 -24 -127 -39
-206 -87 -300 -181 -138 -138 -188 -260 -197 -485 -5 -112 -2 -143 16 -215 79
-315 326 -522 641 -537 201 -10 363 51 500 187 62 61 170 204 182 242 3 9 199
39 207 32 2 -2 -6 -34 -19 -71 -102 -303 -347 -524 -668 -599 -88 -21 -275
-22 -367 -1 -531 116 -842 653 -673 1164 44 134 140 286 235 373 179 164 381
243 618 243 155 0 268 -26 402 -94 106 -53 151 -65 89 -23 -103 70 -280 128
-431 140 -230 19 -499 -75 -678 -237 l-64 -58 69 177 c38 97 91 233 118 302
87 222 228 586 381 980 83 212 171 439 196 504 26 66 46 134 46 152 -1 25 -19
55 -79 129 -81 99 -140 145 -209 164 -28 8 -1020 11 -3420 10 -2809 0 -3387
-3 -3423 -14z m6838 -15 c59 -16 122 -63 173 -128 l48 -62 -3625 0 -3625 0 22
38 c37 63 107 126 162 144 46 15 312 17 3430 17 2183 1 3393 -3 3415 -9z m250
-230 c30 -30 25 -66 -34 -217 -149 -382 -443 -1138 -601 -1543 -98 -250 -184
-468 -192 -483 -8 -15 -28 -37 -46 -47 -32 -20 -72 -20 -2785 -20 -3018 0
-2794 -5 -2826 58 -16 30 -12 20 -353 897 -135 347 -274 704 -310 795 -151
388 -193 500 -193 517 0 11 9 29 20 41 l21 22 3639 0 c3627 0 3640 0 3660 -20z
m-3120 -2475 c0 -77 -17 -118 -63 -145 -31 -19 -54 -20 -540 -20 -467 0 -511
1 -539 18 -44 25 -68 80 -68 152 l0 60 605 0 605 0 0 -65z m4050 -190 c48 -25
60 -51 60 -136 0 -71 -2 -79 -26 -98 -67 -53 -364 -119 -364 -81 0 13 7 15
110 29 100 13 162 29 156 40 -3 4 -45 -1 -93 -11 -48 -10 -103 -18 -121 -18
-36 0 -36 1 -11 67 15 40 153 63 234 40 109 -32 102 -31 85 -14 -28 30 -132
49 -207 38 -38 -5 -76 -12 -85 -16 -15 -6 -16 -3 -8 27 6 18 10 56 10 85 0 62
-3 60 133 62 69 1 106 -3 127 -14z m-3029 -64 l29 -29 0 -155 c0 -153 0 -155
-26 -180 -23 -24 -35 -27 -112 -29 l-85 -3 -61 -99 -60 -98 -33 73 c-59 134
-47 123 -147 129 -81 5 -90 7 -112 33 -23 27 -24 34 -24 170 1 99 5 149 14
166 26 48 43 50 324 51 l264 0 29 -29z m-1410 -21 c67 -19 74 -35 77 -192 5
-204 -11 -228 -152 -228 l-74 0 -58 -95 c-32 -52 -61 -95 -64 -95 -3 0 -23 42
-45 93 l-41 92 -88 5 c-81 5 -90 7 -112 33 -17 20 -24 41 -25 70 0 44 0 221 1
248 0 24 48 67 78 72 58 9 469 6 503 -3z m4156 -22 c-3 -7 -5 -2 -5 12 0 14 2
19 5 13 2 -7 2 -19 0 -25z m-2066 -287 l29 -29 0 -155 c0 -153 0 -155 -26
-180 -28 -28 -83 -41 -154 -35 l-43 3 -61 -99 -60 -98 -33 73 c-57 130 -51
123 -110 120 -69 -3 -128 14 -152 46 -19 23 -21 39 -21 167 1 98 5 148 14 165
26 48 43 50 324 51 l264 0 29 -29z m-1350 -20 l29 -29 0 -154 c0 -153 0 -155
-26 -179 -22 -20 -38 -25 -112 -29 l-86 -5 -56 -89 c-30 -49 -59 -90 -63 -90
-5 -1 -27 41 -49 92 l-41 92 -79 0 c-135 0 -148 19 -148 210 0 137 10 177 47
199 11 6 123 11 286 11 l269 0 29 -29z m-1391 4 c16 -8 34 -24 39 -34 15 -27
15 -304 1 -331 -17 -32 -70 -50 -148 -50 l-68 0 -58 -96 c-32 -52 -60 -93 -62
-92 -2 2 -21 44 -43 93 l-40 90 -87 5 c-82 5 -88 7 -115 38 l-29 32 0 146 0
146 34 34 34 34 256 0 c210 0 262 -3 286 -15z"/>
<path d="M2213 8648 c46 -125 679 -1817 710 -1903 l45 -120 2768 0 2767 0 97
260 c222 597 643 1728 655 1758 7 16 -165 17 -3520 17 -2818 0 -3526 -3 -3522
-12z m1117 -125 c-84 -3 -127 -8 -132 -16 -5 -7 -8 -8 -8 -1 0 21 16 24 139
22 l126 -2 -125 -3z m2172 -5 c-19 -8 -1048 -7 -1132 2 -30 3 216 5 547 5 331
0 595 -3 585 -7z m886 7 c-3 -3 -72 -7 -154 -9 -96 -2 -122 -1 -74 4 98 8 235
11 228 5z m-343 -25 c-3 -5 -12 -10 -18 -10 -7 0 -6 4 3 10 19 12 23 12 15 0z
m-2515 -25 c33 -17 50 -43 50 -77 0 -55 -64 -66 -111 -19 -32 33 -38 71 -13
95 19 20 37 20 74 1z m175 1 c37 -16 55 -42 55 -78 0 -55 -64 -66 -111 -19
-33 33 -37 66 -12 93 19 22 24 22 68 4z m213 -22 c65 -73 -19 -144 -89 -75
-35 36 -38 74 -6 96 28 20 65 12 95 -21z m-691 -37 c1 -29 1 -30 -8 -9 -5 13
-7 28 -3 33 8 14 9 12 11 -24z m143 -31 c0 -8 -4 -18 -10 -21 -5 -3 -10 3 -10
14 0 12 5 21 10 21 6 0 10 -6 10 -14z m-120 -46 c6 -22 16 -40 21 -40 6 0 9
-7 5 -15 -3 -8 1 -30 9 -49 8 -20 15 -43 14 -53 0 -10 -14 20 -29 67 -34 100
-42 130 -36 130 3 0 10 -18 16 -40z m2087 -17 c-7 -7 -1097 -6 -1104 1 -4 3
245 6 551 5 307 0 556 -3 553 -6z m553 -3 c0 -5 -4 -10 -10 -10 -5 0 -10 5
-10 10 0 6 5 10 10 10 6 0 10 -4 10 -10z m280 0 c0 -12 -173 -12 -210 0 -16 5
18 8 93 9 72 1 117 -3 117 -9z m-2839 -73 c-10 -9 -11 -8 -5 6 3 10 9 15 12
12 3 -3 0 -11 -7 -18z m4870 -20 c-10 -9 -11 -8 -5 6 3 10 9 15 12 12 3 -3 0
-11 -7 -18z m-56 -24 c-8 -16 -17 -37 -20 -47 -3 -10 -8 -16 -11 -13 -3 3 -1
21 6 41 9 29 16 37 37 45 1 1 -4 -11 -12 -26z m-3431 -15 c3 -13 6 -26 6 -30
0 -5 -34 -8 -75 -8 l-75 0 0 28 c0 29 0 29 69 31 64 2 69 0 75 -21z m-376 0
c8 -8 9 -15 1 -25 -9 -10 -90 -13 -403 -13 -399 0 -416 2 -416 37 0 18 800 19
818 1z m1542 2 c13 -9 13 -12 -1 -23 -12 -9 -132 -12 -502 -12 -267 0 -489 3
-492 7 -4 4 -5 14 -2 23 6 13 64 15 494 15 310 0 493 -4 503 -10z m1345 0 c4
-6 1 -17 -5 -25 -11 -13 -91 -15 -544 -15 -292 0 -537 4 -545 9 -8 5 -11 16
-8 25 6 14 61 16 551 16 368 0 547 -3 551 -10z m891 -126 c-4 -13 -13 -24 -21
-24 -10 0 -15 -10 -15 -27 -1 -16 -9 -44 -20 -63 -23 -42 -25 -35 -6 17 8 21
22 64 31 97 14 47 20 55 27 42 6 -10 7 -28 4 -42z m53 49 c0 -5 -4 -17 -9 -28
-8 -18 -9 -17 -9 8 -1 15 4 27 9 27 6 0 10 -3 9 -7z m-3814 -68 c17 -13 18
-16 5 -25 -19 -13 -557 -11 -582 2 -42 21 -10 28 135 30 83 2 213 4 287 6 108
2 140 -1 155 -13z m375 6 c0 -5 3 -16 6 -25 5 -14 -5 -16 -70 -16 -74 0 -76 1
-76 25 0 24 2 25 70 25 39 0 70 -4 70 -9z m2554 3 c21 -8 21 -30 0 -38 -29
-11 -1482 -7 -1489 4 -4 6 -1 17 5 25 11 13 115 15 740 15 401 0 735 -3 744
-6z m686 -12 c0 -28 -30 -32 -229 -32 -200 0 -241 6 -227 29 8 13 456 16 456
3z m170 -29 c0 -5 -5 -15 -10 -23 -8 -12 -10 -11 -10 8 0 12 5 22 10 22 6 0
10 -3 10 -7z m-20 -67 c0 -2 -8 -10 -17 -17 -16 -13 -17 -12 -4 4 13 16 21 21
21 13z m-3732 -38 c8 -8 9 -15 1 -25 -9 -10 -88 -13 -388 -13 -207 0 -382 4
-390 9 -8 5 -11 16 -8 25 6 14 47 16 390 16 280 0 386 -3 395 -12z m362 3 c0
-5 3 -17 6 -26 6 -14 -3 -16 -67 -13 -68 3 -74 5 -77 26 -3 21 0 22 67 22 39
0 71 -4 71 -9z m3175 -1 c4 -6 1 -17 -5 -25 -11 -13 -143 -15 -966 -15 -653 0
-955 3 -959 10 -4 6 -4 17 -1 25 5 13 135 15 965 15 656 0 962 -3 966 -10z
m108 -45 c-3 -9 -8 -14 -10 -11 -3 3 -2 9 2 15 9 16 15 13 8 -4z m-3263 -100
c0 -24 -2 -25 -70 -25 -68 0 -70 1 -70 25 0 24 2 25 70 25 68 0 70 -1 70 -25z
m3115 13 c4 -4 5 -14 2 -23 -6 -13 -121 -15 -1099 -13 -964 3 -1093 5 -1093
18 0 13 120 16 1000 21 1181 6 1181 6 1190 -3z m-3470 -18 c0 -13 -44 -15
-330 -17 -181 -2 -336 1 -344 6 -7 5 -10 14 -7 20 5 8 103 11 344 9 292 -3
337 -5 337 -18z m1219 11 c13 -21 -25 -32 -105 -29 -70 3 -84 6 -87 21 -3 15
6 17 92 17 52 0 97 -4 100 -9z m-846 -138 c3 -22 0 -23 -67 -23 -69 0 -71 1
-71 25 0 26 1 26 68 23 61 -3 67 -5 70 -25z m974 9 c10 -10 10 -15 -2 -22 -9
-6 -178 -10 -406 -10 -323 0 -394 2 -410 14 -18 14 -18 15 6 24 14 5 195 9
412 8 302 -1 390 -4 400 -14z m1226 8 c21 0 13 -29 -10 -35 -13 -3 -225 -4
-473 -3 -410 3 -450 4 -453 20 -2 9 4 18 14 20 13 2 584 1 922 -2z m-2552 -11
c3 -6 0 -15 -7 -21 -17 -11 -729 -6 -747 5 -7 5 -10 13 -7 18 9 14 752 12 761
-2z m24 -124 c10 -12 9 -16 -2 -20 -7 -3 -115 -4 -238 -3 -205 3 -225 5 -228
21 -3 16 13 17 226 17 191 0 232 -2 242 -15z m343 -5 c5 -19 0 -20 -64 -20
-62 0 -69 2 -69 20 0 18 7 20 64 20 55 0 64 -3 69 -20z m1892 0 c0 -13 -104
-15 -864 -18 -516 -1 -869 2 -874 7 -30 30 14 31 871 29 763 -3 867 -5 867
-18z m385 10 c28 -19 -11 -30 -107 -30 -89 0 -123 11 -92 31 19 12 180 11 199
-1z m-2601 -123 c6 -8 8 -17 4 -20 -11 -12 -731 -8 -738 3 -17 27 18 30 364
30 288 0 361 -3 370 -13z m341 -7 c0 -18 -7 -20 -65 -20 -58 0 -65 2 -65 20 0
18 7 20 65 20 58 0 65 -2 65 -20z m635 0 c0 -13 -34 -15 -239 -18 -139 -1
-244 2 -249 7 -27 27 9 31 246 29 207 -3 242 -5 242 -18z m1770 0 c0 -13 -96
-15 -794 -18 -474 -1 -799 2 -804 7 -30 30 13 31 801 29 701 -3 797 -5 797
-18z m390 0 c0 -12 -16 -16 -70 -18 -90 -4 -121 3 -104 24 17 21 174 16 174
-6z m-3988 -102 c-3 -7 -5 -2 -5 12 0 14 2 19 5 13 2 -7 2 -19 0 -25z m879 -9
c3 -6 0 -15 -7 -20 -8 -5 -139 -9 -292 -9 -268 0 -327 6 -312 31 9 14 602 12
611 -2z m327 -9 c5 -18 0 -20 -59 -20 -57 0 -64 2 -64 20 0 18 7 20 59 20 50
0 59 -3 64 -20z m315 3 c3 -10 -18 -13 -82 -13 -71 0 -86 3 -86 15 0 13 14 15
82 13 54 -2 83 -7 86 -15z m1877 8 c17 -29 -53 -31 -854 -31 -450 0 -826 3
-835 6 -9 3 -16 12 -16 20 0 12 130 14 849 14 526 0 852 -4 856 -9z m-3427
-57 c-3 -14 -5 -12 -10 9 -3 19 -2 25 4 19 6 -6 8 -18 6 -28z m78 -78 c5 -19
4 -19 -12 3 -9 13 -18 42 -20 65 l-2 41 14 -44 c7 -24 16 -53 20 -65z m-62 38
c3 -8 2 -12 -4 -9 -6 3 -10 10 -10 16 0 14 7 11 14 -7z m905 -13 c41 -26 -7
-31 -288 -31 -229 0 -291 3 -300 13 -6 8 -8 17 -4 20 10 10 576 8 592 -2z
m331 -11 c0 -19 -5 -21 -62 -18 -50 2 -63 6 -66 21 -3 15 5 17 62 17 60 0 66
-2 66 -20z m1408 3 c3 -10 -42 -13 -202 -13 -189 0 -219 4 -199 24 4 3 94 5
202 4 145 -2 195 -6 199 -15z m1455 10 c4 -3 2 -12 -4 -20 -9 -11 -121 -13
-610 -13 -388 0 -600 4 -604 10 -3 6 -3 15 0 20 7 11 1207 15 1218 3z m-4079
-28 c3 -8 1 -15 -3 -15 -5 0 -11 7 -15 15 -3 8 -1 15 3 15 5 0 11 -7 15 -15z
m65 -75 c0 -10 -3 -8 -9 5 -12 27 -12 43 0 25 5 -8 9 -22 9 -30z m844 -7 c4
-3 2 -12 -4 -20 -9 -10 -73 -13 -311 -13 -288 0 -348 5 -333 31 7 10 638 13
648 2z m317 3 c0 -2 3 -11 6 -20 5 -14 -4 -16 -60 -16 -59 0 -66 2 -66 20 0
18 7 20 60 20 33 0 60 -2 60 -4z m538 -13 c3 -10 -20 -13 -92 -13 -88 0 -108
5 -89 24 13 12 176 2 181 -11z m2282 3 c0 -8 -7 -17 -16 -20 -9 -3 -489 -6
-1069 -6 -868 0 -1055 2 -1064 13 -6 8 -8 17 -4 20 3 4 489 7 1080 7 910 0
1073 -2 1073 -14z m-3970 -16 c0 -5 -4 -10 -10 -10 -5 0 -10 5 -10 10 0 6 5
10 10 10 6 0 10 -4 10 -10z m19 -70 c0 -9 -4 -8 -9 5 -5 11 -9 27 -9 35 0 9 4
8 9 -5 5 -11 9 -27 9 -35z m-39 -27 c0 -13 4 -23 8 -23 4 0 9 -12 10 -27 1
-15 7 -32 12 -37 6 -6 10 -16 10 -22 0 -7 5 -25 11 -41 12 -30 20 -73 14 -73
-4 0 -95 277 -95 288 1 17 29 -46 30 -65z m1188 5 c3 -16 -5 -18 -57 -18 -34
0 -61 2 -61 4 0 2 -3 12 -6 21 -6 14 2 16 57 13 51 -2 64 -6 67 -20z m-320 0
c-4 -10 -55 -13 -213 -13 -158 0 -209 3 -212 13 -4 9 43 12 212 12 169 0 216
-3 213 -12z m1832 -3 c0 -13 -80 -15 -687 -13 -538 2 -687 6 -691 16 -3 9 139
12 687 12 609 0 691 -2 691 -15z m294 6 c9 -14 -20 -21 -84 -21 -55 0 -78 9
-63 24 10 9 141 7 147 -3z m-2930 -80 c-7 -8 -11 4 -17 44 l-6 40 13 -40 c7
-22 12 -42 10 -44z m1136 -27 c0 -10 -15 -14 -60 -14 -50 0 -60 3 -60 18 0 15
8 17 60 14 43 -3 60 -8 60 -18z m-1116 -24 c3 -14 3 -19 0 -12 -3 6 -9 10 -12
8 -4 -2 -8 7 -9 21 -1 30 12 18 21 -17z m806 25 c0 -13 -44 -15 -340 -15 -296
0 -340 2 -340 15 0 13 44 15 340 15 296 0 340 -2 340 -15z m2533 0 c2 -10
-2055 -20 -2081 -10 -7 3 -10 9 -7 15 9 14 2084 9 2088 -5z m-3326 -87 c-3 -8
-6 -5 -6 6 -1 11 2 17 5 13 3 -3 4 -12 1 -19z m141 -15 c-21 -2 -55 -2 -75 0
-21 2 -4 4 37 4 41 0 58 -2 38 -4z m577 -3 c-20 -5 3 -8 72 -9 56 0 104 -5
107 -10 9 -13 -227 -10 -236 3 -15 22 -7 26 40 25 42 -1 44 -2 17 -9z m188 3
c-18 -2 -48 -2 -65 0 -18 2 -4 4 32 4 36 0 50 -2 33 -4z m2040 -4 c-18 -5 -33
-11 -33 -12 0 -2 30 -1 66 1 41 3 70 0 77 -7 8 -8 -18 -11 -98 -10 -61 1 -97
4 -82 6 23 4 26 7 16 19 -10 12 -4 14 37 13 48 -1 48 -1 17 -10z m141 1 c-5
-5 -29 -6 -59 -1 l-50 9 60 1 c37 1 56 -2 49 -9z m-2904 -20 c-8 -5 -55 -9
-105 -8 l-90 2 90 6 c50 3 97 7 105 8 13 2 13 1 0 -8z"/>
<path d="M8098 8077 c-3 -19 -2 -25 4 -19 6 6 8 18 6 28 -3 14 -5 12 -10 -9z"/>
<path d="M10290 5870 c-8 -5 -12 -12 -8 -15 9 -9 48 4 48 16 0 12 -21 11 -40
-1z"/>
<path d="M6992 5917 c-15 -17 1 -42 23 -33 18 6 17 37 -1 43 -6 2 -16 -2 -22
-10z"/>
<path d="M6999 5818 c-7 -13 -5 -88 1 -88 12 0 33 67 25 80 -6 9 -23 14 -26 8z"/>
<path d="M5542 5918 c-7 -7 -12 -31 -12 -55 0 -30 -5 -45 -17 -52 -17 -9 -17
-11 -1 -23 11 -8 18 -30 20 -63 3 -46 5 -50 31 -53 30 -4 35 5 13 22 -14 11
-20 63 -17 159 1 34 5 47 16 47 8 0 15 7 15 15 0 18 -31 20 -48 3z"/>
<path d="M5670 5924 c0 -4 7 -12 16 -18 12 -9 15 -32 15 -106 0 -74 -3 -95
-15 -102 -24 -14 -19 -28 9 -28 29 0 45 30 45 85 0 18 6 35 13 38 10 4 10 7 0
18 -7 7 -13 25 -13 40 0 49 -17 79 -45 79 -14 0 -25 -3 -25 -6z"/>
<path d="M7622 5558 c3 -8 28 -14 66 -16 51 -2 62 0 62 13 0 12 -13 15 -66 15
-48 0 -65 -3 -62 -12z"/>
<path d="M7620 5490 c0 -6 28 -10 65 -10 37 0 65 4 65 10 0 6 -28 10 -65 10
-37 0 -65 -4 -65 -10z"/>
<path d="M6190 5590 c-11 -11 -20 -26 -20 -34 0 -8 -6 -17 -12 -20 -10 -5 -10
-7 0 -12 7 -4 12 -27 12 -65 0 -52 2 -59 20 -59 18 0 20 7 20 60 0 53 2 60 20
60 11 0 20 5 20 10 0 6 -8 10 -18 10 -10 0 -21 3 -25 6 -11 11 5 34 23 34 25
0 34 16 14 24 -25 9 -33 7 -54 -14z"/>
<path d="M6282 5527 c-49 -52 -15 -127 56 -127 48 0 76 28 76 75 0 47 -28 75
-74 75 -25 0 -43 -7 -58 -23z m86 -29 c33 -33 -6 -91 -47 -69 -24 13 -30 31
-20 59 9 24 47 30 67 10z"/>
<path d="M6457 5543 c-4 -3 -7 -37 -7 -75 0 -61 2 -68 20 -68 17 0 20 7 20 50
0 44 3 52 25 62 29 13 36 44 8 33 -10 -4 -24 -9 -30 -12 -7 -3 -13 0 -13 6 0
12 -13 15 -23 4z"/>
<path d="M4860 5484 c0 -95 2 -105 18 -102 15 3 17 17 20 106 3 97 2 102 -18
102 -19 0 -20 -6 -20 -106z"/>
<path d="M4697 5512 c-23 -25 -22 -85 1 -105 26 -23 78 -32 97 -17 25 21 17
31 -20 24 -22 -4 -41 -2 -50 6 -27 22 -16 30 45 30 67 0 74 9 39 54 -25 32
-86 37 -112 8z m88 -22 c18 -20 17 -20 -28 -20 -49 0 -60 11 -29 29 25 15 37
13 57 -9z"/>
<path d="M4946 5514 c-31 -31 -19 -51 42 -69 45 -14 41 -30 -8 -30 -50 0 -53
-17 -6 -29 27 -7 40 -5 60 8 42 27 30 64 -25 75 -49 10 -46 37 4 34 27 -2 37
2 37 12 0 21 -83 20 -104 -1z"/>
<path d="M5100 5510 c-58 -58 20 -156 96 -121 34 15 21 31 -19 24 -24 -4 -39
0 -52 13 -18 19 -17 19 43 22 54 3 62 6 62 22 0 32 -36 60 -75 60 -22 0 -43
-8 -55 -20z m86 -17 c17 -17 17 -18 -9 -21 -15 -2 -37 -2 -49 0 -21 3 -21 4
-4 21 10 9 24 17 31 17 7 0 21 -8 31 -17z"/>
<path d="M1745 6818 c-43 -23 -64 -52 -81 -109 l-18 -58 -22 24 c-27 29 -33
30 -60 10 -27 -21 -39 -18 -54 11 -19 34 -89 74 -131 74 -77 0 -154 -74 -186
-178 -9 -31 -18 -58 -19 -60 -1 -2 -17 4 -35 13 -41 22 -106 15 -148 -14 -44
-32 -92 -134 -94 -204 -1 -31 -4 -57 -7 -57 -3 1 -14 7 -24 15 -25 19 -69 19
-105 0 -99 -51 -126 -198 -58 -315 l22 -39 -26 -28 c-15 -15 -32 -38 -38 -50
-15 -30 -13 -103 4 -133 21 -36 18 -83 -6 -125 -17 -29 -21 -47 -17 -97 4 -53
9 -65 37 -90 l32 -29 -19 -24 c-58 -73 -21 -201 51 -179 12 3 30 13 40 22 9 8
19 13 20 11 2 -2 24 -33 49 -69 118 -168 298 -292 513 -353 101 -28 306 -35
416 -13 333 67 594 295 698 612 18 55 40 106 48 116 17 20 43 101 43 138 0 15
-11 49 -25 76 -14 27 -25 57 -25 67 0 11 18 40 41 65 94 108 122 242 77 379
-41 125 -147 202 -220 160 -31 -18 -30 -19 -52 48 -28 85 -98 145 -171 145
-36 0 -111 -38 -138 -69 l-22 -27 3 66 c3 48 0 76 -12 98 -21 40 -68 65 -107
57 -24 -5 -29 -3 -29 12 0 29 -37 81 -69 98 -35 18 -49 18 -76 3z m155 -350
c11 -12 20 -31 20 -42 -2 -82 -142 -184 -201 -147 -25 15 -29 14 -29 -7 0 -24
-27 -48 -62 -57 -22 -6 -33 -1 -58 23 -34 34 -39 75 -15 121 20 39 41 45 80
21 18 -11 38 -20 44 -20 7 0 40 29 75 65 70 73 108 84 146 43z m-470 -127 c33
-62 -15 -142 -124 -206 -50 -29 -54 -36 -31 -55 56 -47 -62 -194 -139 -174
-53 13 -53 116 0 150 37 25 24 26 -37 4 -98 -36 -122 -23 -99 53 17 58 64 121
105 140 30 15 40 15 90 2 78 -21 90 -19 117 16 66 88 98 107 118 70z m524
-123 c44 -62 -5 -158 -81 -158 -21 0 -47 -7 -57 -15 -27 -20 -42 -19 -66 5
-14 14 -20 33 -20 64 0 37 5 48 27 66 16 12 35 19 45 16 10 -3 27 -9 38 -12
13 -4 20 -2 20 7 0 21 32 49 56 49 13 0 30 -10 38 -22z m348 -105 c56 -51 -38
-245 -100 -207 -9 6 -23 23 -30 37 -15 31 -3 91 29 144 17 28 31 35 73 42 5 0
18 -6 28 -16z m-744 -28 c29 -33 52 -89 52 -128 0 -27 -37 -94 -62 -111 -33
-23 -71 -20 -98 9 -32 34 -41 155 -15 206 36 69 77 77 123 24z m441 -128 c5
-13 7 -35 4 -50 -3 -15 -2 -34 1 -44 6 -13 11 -10 32 20 29 44 61 49 70 12 7
-27 -12 -85 -28 -85 -5 0 -7 -4 -4 -9 3 -5 15 -7 26 -4 31 8 70 -23 70 -55 -1
-35 -18 -57 -54 -66 -22 -5 -34 -2 -53 15 l-23 23 -16 -22 c-19 -28 -91 -65
-111 -58 -11 4 -14 16 -11 40 3 25 -1 37 -14 45 -27 17 -22 55 12 91 26 28 28
33 15 47 -20 19 -19 73 1 101 21 31 71 30 83 -1z m-1008 -98 c11 -11 18 -27
15 -36 -5 -11 -2 -13 11 -8 21 8 22 8 49 6 14 -1 27 -13 38 -35 l16 -33 40 38
c46 44 79 50 110 19 39 -39 20 -99 -53 -167 -72 -66 -138 -67 -155 -1 l-8 32
-50 -45 c-88 -81 -115 -99 -145 -99 -22 0 -30 6 -35 25 -8 34 1 66 26 93 18
19 20 30 15 62 -7 43 12 87 63 143 31 32 36 33 63 6z m1340 -42 c63 -22 80
-46 63 -91 -9 -23 -65 -30 -106 -13 -40 17 -54 50 -38 91 11 29 28 32 81 13z
m-543 -48 c21 -32 5 -76 -46 -128 -73 -75 -92 -84 -159 -77 -39 4 -71 2 -98
-8 -47 -17 -67 -9 -85 33 -31 75 63 163 130 121 9 -5 19 -5 27 2 7 6 13 7 13
2 0 -4 10 2 23 14 60 56 171 80 195 41z m712 11 c0 -5 -2 -10 -4 -10 -3 0 -8
5 -11 10 -3 6 -1 10 4 10 6 0 11 -4 11 -10z m-1775 -106 c13 -5 14 -8 3 -15
-19 -13 -28 -11 -28 6 0 17 2 18 25 9z m1740 -263 c-9 -28 -18 -51 -20 -51 -1
0 -2 22 -2 50 1 36 5 50 16 53 24 5 24 2 6 -52z m-1521 -188 c81 -107 181
-188 309 -248 258 -123 577 -98 814 63 72 49 173 149 211 209 30 48 37 52 45
23 7 -27 44 -26 76 3 24 22 24 22 -4 -28 -121 -214 -290 -349 -535 -431 -79
-26 -97 -28 -250 -29 -143 0 -176 3 -245 23 -165 47 -313 138 -425 259 -51 54
-130 163 -130 177 0 4 11 4 24 0 25 -6 40 14 30 41 -14 35 36 -3 80 -62z"/>
<path d="M9243 6579 c-122 -20 -243 -88 -330 -182 -88 -97 -133 -213 -133
-347 0 -145 48 -258 156 -366 111 -113 246 -168 409 -168 152 0 288 53 393
151 151 141 207 340 151 531 -12 39 -25 72 -30 72 -4 0 -54 -11 -111 -24 -56
-14 -124 -28 -150 -31 l-48 -7 20 -25 c67 -85 -31 -185 -195 -200 -95 -9 -155
14 -77 30 44 9 82 44 82 77 0 40 -39 67 -106 75 -41 6 -54 11 -54 24 0 16 50
61 67 61 5 0 19 7 32 16 l23 17 -47 29 c-56 35 -81 82 -64 125 13 34 39 64
102 114 l49 39 -44 -1 c-23 -1 -66 -5 -95 -10z"/>
<path d="M3948 5981 l-33 -29 -5 -119 c-7 -168 -1 -217 33 -251 24 -24 36 -28
113 -32 l85 -5 44 -100 c24 -55 48 -100 55 -100 6 0 39 45 73 100 l63 100 85
5 c136 8 149 28 149 230 0 235 8 230 -359 230 l-271 0 -32 -29z m598 -6 c38
-26 46 -64 42 -215 -3 -141 -3 -142 -31 -166 -25 -21 -38 -24 -110 -24 l-82 0
-59 -95 c-32 -52 -62 -95 -65 -95 -3 0 -24 42 -46 93 l-40 92 -85 3 c-76 3
-88 6 -112 29 l-28 27 0 154 0 154 29 29 29 29 269 0 c219 0 272 -3 289 -15z"/>
<path d="M4150 5776 l0 -136 29 0 c36 0 51 19 22 27 -20 5 -21 12 -21 109 0
99 1 104 21 104 33 0 16 25 -19 28 l-32 3 0 -135z"/>
<path d="M4307 5903 c-13 -12 -7 -23 13 -23 19 0 20 -7 20 -105 0 -100 -1
-105 -21 -105 -33 0 -16 -25 19 -28 l32 -3 0 135 0 136 -28 0 c-16 0 -32 -3
-35 -7z"/>
<path d="M3259 5735 c-53 -29 -59 -51 -59 -219 0 -151 1 -155 26 -185 30 -36
85 -53 156 -50 l49 3 46 -102 c25 -57 51 -101 57 -99 6 2 37 47 70 100 l59 97
56 0 c78 0 126 16 155 51 25 30 26 34 26 180 0 245 9 239 -352 239 -207 -1
-269 -4 -289 -15z m590 -34 l31 -29 0 -151 c0 -150 0 -151 -27 -181 -27 -29
-32 -31 -113 -33 l-84 -2 -61 -97 c-33 -53 -63 -94 -66 -90 -3 4 -23 46 -44
94 -21 48 -43 89 -49 91 -6 2 -45 5 -86 6 -69 2 -77 4 -102 31 -28 30 -28 31
-28 181 l0 151 29 29 29 29 270 0 270 0 31 -29z"/>
<path d="M3492 5613 c4 -21 33 -25 33 -3 0 8 -8 16 -18 18 -14 3 -18 -1 -15
-15z"/>
<path d="M3602 5614 c-12 -8 -22 -21 -22 -29 0 -8 -8 -19 -17 -25 -17 -10 -17
-10 0 -20 13 -8 17 -24 17 -65 0 -42 4 -55 15 -55 12 0 15 13 15 60 0 53 2 60
20 60 11 0 20 5 20 10 0 6 -9 10 -21 10 -28 0 -21 34 9 38 26 4 29 17 6 26
-20 8 -16 9 -42 -10z"/>
<path d="M3497 5564 c-11 -11 -8 -144 3 -144 6 0 13 0 16 0 3 0 6 32 6 72 0
67 -8 89 -25 72z"/>
<path d="M8761 5720 c9 -13 22 -26 30 -29 11 -3 10 1 -2 19 -9 13 -22 26 -30
29 -11 3 -10 -1 2 -19z"/>
<path d="M8855 5620 c-9 -15 124 -107 203 -141 139 -58 287 -73 429 -43 80 16
171 48 188 66 13 14 -21 6 -115 -27 -204 -72 -457 -29 -637 107 -35 26 -65 43
-68 38z"/>
<path d="M3245 5011 l-50 -6 0 -1075 0 -1075 238 -3 237 -2 0 -311 0 -311 -39
-66 c-22 -37 -60 -125 -84 -197 -25 -71 -48 -138 -52 -149 -6 -14 -4 -18 6
-14 8 2 35 67 61 143 26 77 66 170 88 207 l40 67 0 458 c0 447 -1 461 -25 583
-26 131 -32 220 -15 220 6 0 10 7 10 15 0 8 9 20 20 27 11 7 20 16 20 20 0 15
-20 8 -42 -14 l-21 -21 6 84 c4 47 16 119 26 161 17 64 30 89 83 157 53 68 68
81 93 81 25 1 40 14 90 75 50 62 65 74 91 74 16 1 35 -4 40 -9 14 -14 49 24
38 41 -5 9 -10 8 -18 -3 -10 -13 -16 -14 -34 -4 -20 11 -21 13 -6 34 10 15 25
22 49 22 85 0 87 -85 4 -191 -20 -26 -36 -68 -55 -146 l-26 -109 33 -108 c28
-93 36 -109 62 -122 16 -9 30 -14 32 -12 5 4 32 251 40 358 8 103 86 333 166
485 43 80 58 100 86 111 36 16 55 10 86 -24 34 -37 32 -82 -6 -173 -35 -83
-75 -294 -79 -409 -4 -126 4 -470 11 -470 4 0 13 21 19 48 10 46 10 45 9 -35
-1 -46 1 -83 5 -83 10 0 16 31 23 125 22 304 37 399 90 590 30 105 56 208 60
229 4 23 18 51 35 68 26 25 34 28 67 22 21 -3 49 -17 63 -30 24 -23 25 -30 23
-117 -2 -50 -10 -148 -19 -217 -23 -176 -29 -467 -14 -725 7 -121 14 -227 16
-235 1 -8 3 -17 3 -20 3 -16 84 238 97 305 37 182 118 285 222 285 59 0 67
-16 46 -92 -12 -40 -20 -116 -24 -208 -5 -132 -10 -160 -53 -320 -64 -234 -87
-288 -206 -497 -100 -173 -107 -183 -267 -353 -159 -169 -166 -179 -223 -295
-33 -66 -82 -181 -109 -255 -28 -74 -53 -143 -57 -152 -5 -12 -2 -18 6 -18 9
0 35 57 68 148 60 164 113 287 151 348 14 23 96 118 184 212 125 134 172 193
224 278 86 145 179 326 196 383 l13 46 539 3 539 2 17 -57 c41 -138 151 -268
397 -468 74 -60 158 -132 187 -160 50 -49 53 -54 102 -210 150 -475 176 -555
185 -546 5 5 -39 157 -104 362 -85 269 -118 361 -138 383 -14 16 -104 94 -200
174 -345 287 -394 356 -431 603 -20 133 -45 250 -60 279 -4 8 -15 38 -23 66
l-15 52 30 37 c23 27 28 39 19 45 -10 5 -9 15 2 41 7 19 20 66 27 104 16 86
30 105 83 105 34 0 46 -6 78 -40 45 -47 53 -81 47 -193 -5 -75 -2 -90 27 -167
43 -111 58 -187 48 -236 -10 -46 -6 -94 8 -94 5 0 9 27 9 60 0 59 42 279 59
311 5 9 5 22 0 30 -5 8 -18 43 -29 77 -12 35 -79 179 -149 320 -205 410 -297
636 -288 706 10 73 76 103 134 60 14 -11 55 -73 90 -139 78 -144 165 -274 338
-502 l130 -172 28 27 c44 42 119 151 112 163 -5 6 -12 3 -21 -8 -13 -16 -14 3
-10 157 3 96 8 187 12 203 4 17 2 27 -4 27 -6 0 -14 -17 -17 -37 -13 -76 -14
-78 -40 -43 -13 17 -28 51 -34 76 -6 24 -16 44 -21 44 -25 0 2 -88 45 -145 19
-25 35 -49 35 -54 0 -37 -108 -63 -158 -37 -73 37 -70 92 8 214 98 151 165
157 347 34 50 -34 68 -40 134 -46 87 -8 143 -36 224 -110 37 -34 57 -46 81
-46 57 0 92 -19 122 -69 23 -37 72 -136 72 -145 0 -1 -16 0 -36 2 -27 3 -35 1
-32 -8 2 -8 15 -14 28 -15 13 -1 32 -13 43 -26 22 -27 21 -42 -12 -284 -18
-134 -21 -201 -21 -624 l0 -475 46 -165 c87 -313 134 -474 139 -479 3 -3 7 -3
10 0 5 5 -16 85 -131 490 l-44 156 0 196 0 196 315 0 315 0 0 77 0 77 33 -31
c17 -18 45 -37 60 -42 37 -14 775 -15 761 -1 -5 5 -160 10 -381 12 -357 3
-373 4 -399 24 -15 11 -37 33 -48 48 -21 27 -21 36 -24 900 l-2 873 23 34 c12
18 38 44 56 56 l34 23 1023 0 c630 0 1032 -4 1048 -10 16 -6 27 -6 31 0 4 6
-6 15 -20 20 -34 13 -2064 14 -2098 1 -14 -5 -41 -24 -61 -41 l-36 -32 0 85 0
84 -52 7 c-67 7 -4925 5 -4993 -3z m535 -271 l0 -120 -230 0 -230 0 0 120 0
120 230 0 230 0 0 -120z m320 -20 l0 -120 -120 0 -120 0 0 120 0 120 120 0
120 0 0 -120z m340 0 l0 -120 -120 0 -120 0 0 120 0 120 120 0 120 0 0 -120z
m340 0 l0 -120 -125 0 -125 0 0 120 0 120 125 0 125 0 0 -120z m340 0 l0 -120
-125 0 -125 0 0 120 0 120 125 0 125 0 0 -120z m330 0 l0 -120 -120 0 -120 0
0 120 0 120 120 0 120 0 0 -120z m340 0 l0 -120 -120 0 -120 0 0 120 0 120
120 0 120 0 0 -120z m340 0 l0 -120 -125 0 -125 0 0 120 0 120 125 0 125 0 0
-120z m340 0 l0 -120 -125 0 -125 0 0 120 0 120 125 0 125 0 0 -120z m330 0
l0 -120 -120 0 -120 0 0 120 0 120 120 0 120 0 0 -120z m340 0 l0 -120 -120 0
-120 0 0 120 0 120 120 0 120 0 0 -120z m340 0 l0 -120 -125 0 -125 0 0 120 0
120 125 0 125 0 0 -120z m340 0 l0 -120 -125 0 -125 0 0 120 0 120 125 0 125
0 0 -120z m330 0 l0 -120 -120 0 -120 0 0 120 0 120 120 0 120 0 0 -120z
m-4585 -305 l0 -120 -122 -3 -123 -3 0 126 0 126 123 -3 122 -3 0 -120z m335
0 l0 -125 -120 0 -120 0 0 125 0 125 120 0 120 0 0 -125z m340 0 l0 -125 -120
0 -120 0 0 125 0 125 120 0 120 0 0 -125z m338 3 c-2 -91 -6 -122 -17 -126
-10 -3 -11 3 -5 29 23 89 1 158 -60 187 -38 19 -93 -2 -121 -45 -11 -17 -25
-39 -32 -49 -10 -16 -12 -7 -12 54 l-1 72 125 0 126 0 -3 -122z m333 -3 c0
-119 0 -120 -23 -120 -16 0 -24 7 -26 22 -7 51 -113 99 -161 74 -11 -6 -22
-11 -25 -11 -3 0 -6 36 -6 80 l0 81 121 -3 120 -3 0 -120z m339 0 l0 -125
-120 0 -120 0 0 125 0 125 120 0 120 0 0 -125z m340 0 l0 -126 -121 3 -121 3
0 115 c0 63 1 118 1 123 1 4 55 7 121 7 l120 0 0 -125z m338 3 l-3 -123 -122
-3 -123 -3 0 126 0 125 125 0 126 0 -3 -122z m154 94 c-41 -38 -50 -89 -28
-157 20 -66 21 -65 -9 -65 l-25 0 0 125 0 125 46 0 46 0 -30 -28z m180 -12 c2
-22 2 -40 0 -40 -2 0 -13 12 -25 26 -11 15 -34 32 -51 40 l-31 13 51 1 52 0 4
-40z m338 -85 l0 -125 -120 0 -120 0 0 125 0 125 120 0 120 0 0 -125z m340 49
c0 -69 -2 -75 -17 -69 -10 4 -39 10 -64 12 -54 6 -101 -14 -141 -60 l-27 -32
-1 106 c0 58 3 109 7 112 3 4 60 7 125 7 l118 0 0 -76z m338 -46 l-3 -123 -88
-3 c-76 -2 -93 0 -123 18 l-34 22 0 104 0 104 125 0 126 0 -3 -122z m332 -3
l0 -125 -120 0 -120 0 0 125 0 125 120 0 120 0 0 -125z m540 -7 l0 -123 -220
3 -220 3 0 119 0 120 220 0 220 0 0 -122z m-4460 -313 l0 -125 -185 0 -185 0
0 125 0 125 185 0 185 0 0 -125z m330 115 c0 -6 -36 -53 -81 -105 -65 -77 -86
-95 -108 -95 -15 0 -32 -5 -39 -12 -9 -9 -12 13 -12 98 0 61 3 114 7 117 11
12 233 8 233 -3z m230 -2 c-1 -7 -20 -62 -43 -123 -35 -90 -47 -111 -65 -113
-31 -5 -29 23 9 94 25 49 30 67 26 107 l-4 47 38 0 c25 0 39 -5 39 -12z m362
7 c3 -3 -5 -40 -17 -83 -13 -42 -28 -96 -34 -119 -11 -41 -13 -43 -51 -43 -26
0 -40 4 -39 13 0 6 8 59 18 117 16 96 19 105 41 111 31 9 75 11 82 4z m428
-120 l0 -125 -96 0 -97 0 7 93 c4 50 10 107 13 125 l5 32 84 0 84 0 0 -125z
m340 0 l0 -125 -125 0 -125 0 0 125 0 125 125 0 125 0 0 -125z m330 0 l0 -125
-120 0 -120 0 0 125 0 125 120 0 120 0 0 -125z m340 0 l0 -125 -120 0 -120 0
0 125 0 125 120 0 120 0 0 -125z m574 108 c-31 -70 -3 -151 59 -174 24 -8 37
-20 40 -36 4 -23 3 -23 -79 -23 l-82 0 -41 57 c-38 54 -41 63 -41 125 l0 68
76 0 c69 0 75 -2 68 -17z m776 -8 c0 -14 -1 -25 -3 -25 -2 0 -14 11 -27 25
l-23 25 26 0 c22 0 27 -5 27 -25z m338 -103 l3 -123 -42 3 c-40 3 -44 7 -78
63 -32 53 -42 62 -83 75 l-48 15 0 48 0 48 123 -3 122 -3 3 -123z m412 -157
l0 -285 -120 0 -120 0 0 160 0 160 -40 0 -40 0 0 125 0 125 160 0 160 0 0
-285z m-1976 109 c14 -31 26 -60 26 -65 0 -5 -13 -9 -30 -9 l-30 0 0 65 c0 36
2 65 4 65 3 0 16 -25 30 -56z m666 -39 c0 -19 -4 -35 -10 -35 -5 0 -10 16 -10
35 0 19 5 35 10 35 6 0 10 -16 10 -35z m-3130 -113 c0 -5 -9 -17 -20 -27 -12
-11 -27 -53 -42 -116 l-23 -99 -152 0 -153 0 0 125 0 125 195 0 c107 0 195 -4
195 -8z m390 -123 c0 -136 -11 -151 -41 -55 -16 48 -17 66 -8 105 16 69 17 71
34 71 13 0 15 -19 15 -121z m1020 1 l0 -120 -125 0 -125 0 0 120 0 120 125 0
125 0 0 -120z m330 0 l0 -120 -120 0 -120 0 0 120 0 120 120 0 120 0 0 -120z
m340 0 l0 -120 -120 0 -120 0 0 120 0 120 120 0 120 0 0 -120z m340 0 l0 -120
-125 0 -125 0 0 120 0 120 125 0 125 0 0 -120z m173 4 c32 -64 55 -119 52
-122 -3 -3 -19 2 -35 11 -16 10 -45 18 -65 19 l-35 1 0 104 c0 77 3 103 13
103 7 0 38 -52 70 -116z m497 49 c0 -48 -5 -72 -17 -85 -9 -10 -19 -18 -23
-18 -7 0 -103 123 -124 158 -5 9 13 12 78 12 l86 0 0 -67z m1019 -53 l-1 -120
-63 0 -63 0 10 43 c10 43 6 148 -7 180 -6 15 0 17 59 17 l67 0 -2 -120z
m-4199 -320 l0 -120 -150 0 -150 0 0 120 0 120 150 0 150 0 0 -120z m870 108
c0 -7 -5 -20 -10 -28 -8 -12 -10 -9 -10 13 0 15 5 27 10 27 6 0 10 -6 10 -12z
m477 -15 c-3 -16 -17 -64 -33 -108 -15 -44 -29 -86 -30 -92 -2 -8 -19 -13 -38
-13 l-34 0 -6 73 c-4 39 -5 93 -4 119 l3 48 74 0 73 0 -5 -27z m343 -93 l0
-120 -60 0 -60 0 0 46 c0 38 18 131 35 182 3 7 21 12 45 12 l40 0 0 -120z
m340 0 l0 -120 -125 0 -125 0 0 120 0 120 125 0 125 0 0 -120z m335 0 l0 -120
-122 0 -123 0 0 120 0 120 123 0 122 0 0 -120z m165 111 c0 -16 -49 -165 -60
-181 -7 -10 -10 16 -10 88 l0 102 35 0 c19 0 35 -4 35 -9z m2000 -111 l0 -120
-245 0 -245 0 0 38 c0 20 5 74 12 120 l11 82 234 0 233 0 0 -120z m-1691 10
c16 -41 33 -87 36 -102 7 -27 6 -28 -36 -28 l-44 0 2 37 c1 21 2 69 2 107 1
38 3 67 5 65 3 -2 18 -38 35 -79z m-2891 -337 l3 -123 -126 0 -125 0 0 125 0
126 123 -3 122 -3 3 -122z m2532 107 c10 -15 44 -142 54 -197 l6 -33 -510 0
c-401 0 -510 3 -510 13 0 6 11 48 25 92 14 44 25 92 25 107 0 25 4 27 48 31
26 2 228 4 450 3 345 -1 404 -3 412 -16z m383 -29 c-8 -55 -19 -57 -32 -7 -6
25 -11 47 -11 49 0 2 11 2 24 0 22 -5 24 -9 19 -42z m1317 -76 l0 -125 -70 0
-70 0 0 118 c0 65 3 122 7 125 3 4 35 7 70 7 l63 0 0 -125z m350 0 l0 -125
-120 0 -120 0 0 125 0 125 120 0 120 0 0 -125z m-3287 68 c-21 -64 -23 -65
-23 -5 0 45 3 52 19 52 19 0 19 -2 4 -47z m-1196 -155 c-2 -24 -4 -5 -4 42 0
47 2 66 4 43 2 -24 2 -62 0 -85z"/>
<path d="M9238 4704 c-205 -49 -331 -206 -374 -464 -18 -104 -20 -330 -4 -437
48 -326 191 -583 374 -673 113 -56 247 -41 353 40 96 72 201 236 252 391 76
233 91 547 36 765 -37 147 -140 286 -250 339 -111 54 -263 70 -387 39z m141
-41 c15 -57 15 -85 3 -116 -26 -61 -7 -192 32 -236 12 -13 16 -38 16 -94 l0
-76 -57 -5 c-212 -21 -401 -57 -487 -92 -18 -7 -19 -3 -13 97 14 228 97 399
239 490 55 36 158 67 220 68 35 1 38 -1 47 -36z m141 16 c99 -27 147 -56 214
-130 87 -96 135 -231 151 -426 l8 -82 -69 29 c-72 30 -191 55 -307 66 l-68 6
5 91 c3 51 8 116 11 145 9 72 -1 134 -29 174 -13 19 -26 53 -29 75 -4 23 -10
48 -13 57 -9 23 33 21 126 -5z m-86 -169 c28 -70 16 -215 -14 -170 -26 39 -38
135 -24 188 9 32 20 27 38 -18z m131 -401 c149 -18 325 -76 325 -108 0 -130
-49 -385 -95 -500 -66 -161 -177 -301 -281 -352 -306 -151 -625 242 -645 796
l-3 70 68 22 c202 66 447 94 631 72z"/>
<path d="M9673 3988 c15 -112 18 -207 9 -260 -7 -44 -6 -58 3 -58 31 0 24 325
-7 355 -7 7 -9 -4 -5 -37z"/>
<path d="M9660 3600 c0 -11 5 -20 10 -20 6 0 10 9 10 20 0 11 -4 20 -10 20 -5
0 -10 -9 -10 -20z"/>
<path d="M9640 3533 c-35 -95 -59 -143 -106 -213 -52 -78 -60 -122 -11 -56 61
79 155 280 136 291 -5 4 -14 -6 -19 -22z"/>
<path d="M2708 4325 l-125 -105 -77 0 c-85 0 -117 -14 -142 -61 -20 -40 -20
-298 0 -338 31 -60 39 -61 342 -61 l276 0 34 34 34 34 0 162 0 162 -34 34
c-33 33 -37 34 -111 34 l-78 0 7 77 c4 42 10 89 13 105 3 16 1 28 -4 28 -6 0
-67 -47 -135 -105z m104 -36 c-5 -41 -8 -77 -5 -81 2 -5 40 -8 84 -8 76 0 82
-2 110 -29 l29 -29 0 -152 0 -152 -29 -29 -29 -29 -272 0 -272 0 -29 29 -29
29 0 152 0 152 29 29 c28 27 34 29 111 29 l81 0 112 94 c62 52 113 89 115 82
1 -7 -1 -46 -6 -87z"/>
<path d="M2612 4030 c7 -97 26 -98 35 -1 6 58 5 61 -17 61 -21 0 -22 -3 -18
-60z"/>
<path d="M2690 4025 c0 -12 14 -15 65 -15 51 0 65 3 65 15 0 12 -14 15 -65 15
-51 0 -65 -3 -65 -15z"/>
<path d="M2690 3955 c0 -12 14 -15 65 -15 51 0 65 3 65 15 0 12 -14 15 -65 15
-51 0 -65 -3 -65 -15z"/>
<path d="M2610 3909 c0 -14 5 -19 17 -17 26 5 29 38 4 38 -15 0 -21 -6 -21
-21z"/>
<path d="M6133 4418 c-27 -13 -31 -33 -5 -23 9 4 34 9 55 12 20 3 37 10 37 14
0 12 -60 10 -87 -3z"/>
<path d="M4458 4389 c-15 -26 -23 -30 -52 -28 -44 4 -57 -7 -22 -20 16 -7 35
-7 50 -1 26 9 56 46 56 67 0 22 -14 14 -32 -18z"/>
<path d="M4713 4243 c-76 -6 -70 -28 7 -29 52 -1 60 1 60 17 0 11 -3 18 -7 17
-5 -1 -32 -3 -60 -5z"/>
<path d="M7127 4234 c-3 -6 3 -58 14 -115 11 -56 24 -162 29 -234 14 -178 17
-192 46 -211 33 -22 46 -8 15 16 -23 17 -25 27 -33 151 -12 192 -53 421 -71
393z"/>
<path d="M7290 4126 c0 -9 7 -12 19 -9 11 3 33 -2 50 -10 28 -14 41 -13 41 3
0 12 -50 30 -80 30 -19 0 -30 -5 -30 -14z"/>
<path d="M7435 4073 c27 -70 27 -196 -1 -423 -5 -36 -2 -50 14 -70 22 -28 43
-20 25 9 -9 15 -8 33 8 82 10 35 19 70 19 77 0 24 -17 11 -28 -20 -10 -30 -10
-29 -4 12 11 72 7 292 -6 323 -12 29 -39 39 -27 10z"/>
<path d="M6370 4033 c-30 -11 -70 -45 -65 -54 4 -5 19 0 34 12 15 11 47 23 69
26 23 3 42 10 42 14 0 10 -56 11 -80 2z"/>
<path d="M4232 4003 c-23 -9 -1 -22 28 -16 19 3 39 0 54 -11 31 -20 44 -3 14
18 -22 15 -69 20 -96 9z"/>
<path d="M3816 3898 c-2 -7 -14 -62 -26 -121 -24 -119 -23 -159 11 -305 24
-104 24 -156 -1 -211 -23 -49 -25 -65 -9 -55 21 13 49 89 49 136 0 26 -9 87
-21 135 -11 48 -22 115 -25 148 -5 60 -5 60 32 88 21 15 48 27 61 27 12 0 23
5 23 11 0 17 -68 4 -92 -18 -19 -17 -19 -17 -14 7 24 101 36 156 36 163 0 12
-20 8 -24 -5z"/>
<path d="M4593 3893 c-29 -11 -9 -18 52 -19 65 0 85 8 43 20 -27 7 -78 7 -95
-1z"/>
<path d="M7158 3623 c11 -27 16 -68 17 -140 0 -103 8 -130 20 -72 18 82 -9
249 -40 249 -12 0 -11 -6 3 -37z"/>
<path d="M6290 3574 c5 -67 6 -66 -60 -58 -38 4 -60 3 -60 -4 0 -12 99 -26
122 -17 20 8 29 39 21 77 -9 44 -25 46 -23 2z"/>
<path d="M5096 3565 c-35 -35 -57 -98 -40 -115 5 -5 21 -12 37 -15 35 -9 37
12 2 25 -25 10 -25 10 -10 47 16 39 50 72 73 73 20 0 13 20 -8 20 -10 0 -35
-16 -54 -35z"/>
<path d="M7397 3483 c-2 -27 -8 -56 -12 -65 -11 -28 11 -21 23 7 14 30 16 105
3 105 -5 0 -11 -21 -14 -47z"/>
<path d="M4130 3478 c-1 -18 -7 -44 -15 -58 -17 -30 -18 -40 -5 -40 16 0 40
57 40 95 0 19 -4 35 -10 35 -5 0 -10 -15 -10 -32z"/>
<path d="M6756 3402 c15 -28 32 -48 36 -45 11 6 -33 85 -51 91 -8 3 -3 -15 15
-46z"/>
<path d="M7561 3428 c-9 -25 -3 -45 9 -31 14 15 22 53 10 53 -6 0 -14 -10 -19
-22z"/>
<path d="M4249 3303 c-6 -15 -14 -49 -16 -75 -6 -52 13 -148 29 -148 6 0 7 10
4 23 -17 55 -18 143 -3 179 9 22 12 40 6 43 -5 4 -14 -6 -20 -22z"/>
<path d="M3914 3248 c7 -50 33 -115 42 -105 3 3 -2 30 -11 61 -9 31 -14 65
-10 76 5 15 2 20 -11 20 -14 0 -16 -7 -10 -52z"/>
<path d="M4612 3188 c-7 -29 -21 -65 -32 -80 -11 -15 -16 -30 -10 -33 18 -11
69 92 70 143 0 40 -15 23 -28 -30z"/>
<path d="M3710 3115 c0 -36 31 -108 42 -97 5 5 2 24 -7 45 -8 20 -15 46 -15
57 0 11 -4 20 -10 20 -5 0 -10 -11 -10 -25z"/>
<path d="M6418 3079 c-10 -6 -18 -14 -18 -19 0 -13 21 -12 40 0 22 14 0 32
-22 19z"/>
<path d="M4827 2957 c4 -37 0 -70 -10 -102 -12 -33 -13 -45 -4 -42 32 10 50
184 20 194 -8 3 -10 -11 -6 -50z"/>
<path d="M5632 2686 l-92 -104 -85 -3 c-80 -4 -86 -6 -117 -37 l-33 -32 -3
-153 c-3 -169 2 -187 57 -224 33 -22 40 -23 287 -23 142 0 264 4 279 10 14 5
37 22 50 36 24 26 25 31 25 181 0 174 -7 200 -64 227 -21 10 -60 16 -100 16
-36 0 -66 3 -66 8 0 25 -33 188 -39 195 -4 4 -49 -40 -99 -97z m108 -43 l12
-83 75 0 c79 0 125 -16 143 -49 5 -11 10 -86 10 -169 0 -143 -1 -150 -24 -175
-13 -14 -39 -28 -57 -32 -19 -3 -144 -5 -277 -3 l-244 3 -29 33 -29 32 0 145
0 145 29 32 c28 32 33 33 115 37 l86 3 83 93 c47 53 85 88 88 81 4 -6 12 -48
19 -93z"/>
<path d="M5642 2367 c-47 -135 -47 -137 -29 -137 7 0 30 51 52 117 50 146 49
143 33 143 -8 0 -30 -49 -56 -123z"/>
<path d="M5512 2392 c-41 -16 -62 -30 -60 -40 4 -19 128 -66 128 -48 0 7 -21
21 -47 31 l-48 19 48 19 c26 11 47 26 47 33 0 8 -1 14 -2 13 -2 0 -31 -13 -66
-27z"/>
<path d="M5725 2410 c-7 -11 14 -25 58 -39 20 -7 37 -14 37 -16 0 -2 -17 -9
-37 -16 -44 -14 -65 -28 -58 -39 9 -15 120 37 120 55 0 18 -111 70 -120 55z"/>
</g>
</svg>
